<?xml version="1.0" encoding="UTF-8" standalone="no"?><!-- Generator: Gravit.io --><svg xmlns="http://www.w3.org/2000/svg" xmlns:xlink="http://www.w3.org/1999/xlink" style="isolation:isolate" viewBox="0 0 500.1 623.4" width="500.1pt" height="623.4pt"><defs><clipPath id="_clipPath_CB3HpZTk8i8hoXDZrO8NzvL3CC4k8OOi"><rect width="500.1" height="623.4"/></clipPath></defs><g clip-path="url(#_clipPath_CB3HpZTk8i8hoXDZrO8NzvL3CC4k8OOi)"><clipPath id="_clipPath_TR231m4OinjOYfWemXEIPjmk85vBdYQT"><rect x="0" y="0" width="500.1" height="623.4" transform="matrix(1,0,0,1,0,0)" fill="rgb(255,255,255)"/></clipPath><g clip-path="url(#_clipPath_TR231m4OinjOYfWemXEIPjmk85vBdYQT)"><g><clipPath id="_clipPath_Qvf2KpF4mOQ5hmH5OgvlkBXUg0J0lwWT"><rect x="89.279" y="111.7" width="321.541" height="400" transform="matrix(1,0,0,1,0,0)" fill="rgb(255,255,255)"/></clipPath><g clip-path="url(#_clipPath_Qvf2KpF4mOQ5hmH5OgvlkBXUg0J0lwWT)"><g><g><rect x="89.279" y="111.7" width="321.541" height="400" transform="matrix(1,0,0,1,0,0)" fill="none"/><path d=" M 123.041 111.7 L 377.059 111.7 C 395.693 111.7 410.821 126.828 410.821 145.462 L 410.821 465.576 L 362.832 511.7 L 123.041 511.7 C 104.407 511.7 89.279 496.572 89.279 477.938 L 89.279 145.462 C 89.279 126.828 104.407 111.7 123.041 111.7 Z " fill="rgb(0,0,0)" fill-opacity="0.04"/><path d=" M 126.083 116.489 L 374.017 116.489 C 392.205 116.489 406.971 131.255 406.971 149.442 L 406.971 461.892 L 360.131 506.911 L 126.083 506.911 C 107.895 506.911 93.129 492.145 93.129 473.958 L 93.129 149.442 C 93.129 131.255 107.895 116.489 126.083 116.489 Z " fill="rgb(255,255,255)"/><path d=" M 406.971 461.892 L 360.131 506.911 Q 351.83 466.103 360.131 461.892 Q 368.432 457.681 406.971 461.892 Z " fill="rgb(238,238,238)"/><rect x="120.8" y="159.038" width="211.141" height="27.59" transform="matrix(1,0,0,1,0,0)" fill="rgb(238,238,238)"/><rect x="120.8" y="213.369" width="153.605" height="27.59" transform="matrix(1,0,0,1,0,0)" fill="rgb(238,238,238)"/><rect x="120.8" y="267.7" width="228.293" height="27.59" transform="matrix(1,0,0,1,0,0)" fill="rgb(238,238,238)"/><rect x="120.8" y="320.312" width="171.541" height="27.59" transform="matrix(1,0,0,1,0,0)" fill="rgb(238,238,238)"/><path d=" M 151.037 233.555 L 294.567 195.1 C 298.176 194.132 301.893 196.278 302.86 199.887 L 306.585 213.788 C 307.553 217.398 305.407 221.114 301.797 222.082 L 158.267 260.538 C 154.657 261.505 150.94 259.36 149.973 255.75 L 146.249 241.849 C 145.281 238.239 147.427 234.523 151.037 233.555 Z " fill="rgb(40,40,45)"/><path d=" M 199.025 412.643 L 342.555 374.187 C 346.165 373.22 349.882 375.365 350.849 378.975 L 354.573 392.876 C 355.541 396.485 353.395 400.202 349.785 401.169 L 206.255 439.625 C 202.645 440.593 198.928 438.447 197.961 434.837 L 194.237 420.937 C 193.269 417.327 195.415 413.611 199.025 412.643 Z " fill="rgb(40,40,45)"/><path d=" M 208.06 282.353 Q 201.097 279.821 191.402 272.923 Q 221.692 268.868 235.354 265.4 Q 249.015 261.931 277.641 249.816 Q 272.977 260.847 268.398 266.185 C 258.505 281.053 252.988 284.39 252.628 291.909 C 252.268 299.427 261.591 330.343 264.155 334.929 C 266.72 339.516 270.723 351.898 276.422 353.065 C 282.121 354.23 295.306 352.116 301.195 356.633 Q 311.752 362.169 320.49 380.1 L 220.495 406.893 Q 219.664 385.143 225.537 376.906 C 231.411 368.669 243.835 364.773 246.794 361.003 C 249.495 355.743 247.788 344.049 247.754 339.324 C 247.721 334.599 240.605 303.102 236.227 296.303 C 231.848 289.505 223.271 287.884 208.06 282.353 Z " fill="rgb(108,160,242)"/><path d=" M 287.077 223.305 C 287.077 223.305 287.852 230.906 288.07 234.151 C 288.288 237.383 288.397 240.217 288.401 242.801 C 288.411 247.894 288.098 251.302 287.325 253.68 C 285.261 261.212 276.113 270.375 269.514 281.321 C 264.414 289.916 261.568 298.405 264.319 307.954 C 266.349 313.601 268.319 325.138 276.579 332.363 C 286.188 339.407 301.304 341.166 309.23 349.292 C 317.852 357.435 324.18 367.094 328.757 379.083 L 336.512 376 C 331.499 363.159 324.085 351.871 314.816 342.948 C 304.506 333.679 289.041 331.621 281.467 325.422 C 274.916 321.237 274.431 311.769 272.176 305.149 C 269.36 298.755 271.846 294.018 276.652 286.018 C 282.66 275.843 292.228 265.733 295.304 256.481 C 296.246 253.264 296.778 248.542 296.768 242.974 C 296.763 240.227 296.643 237.098 296.417 233.734 C 296.191 230.381 295.424 222.888 295.424 222.888 C 295.42 222.834 287.082 223.359 287.077 223.305 Z " fill="rgb(51,51,55)"/><path d=" M 213.943 410.616 C 213.943 410.616 213.169 403.015 212.95 399.77 C 212.733 396.538 212.624 393.704 212.619 391.12 C 212.609 386.027 212.922 382.619 213.695 380.241 C 215.76 372.709 224.907 363.547 231.507 352.601 C 236.607 344.005 239.452 335.516 236.702 325.968 C 234.672 320.321 232.702 308.783 224.441 301.558 C 214.833 294.514 199.716 292.756 191.791 284.629 C 183.169 276.486 176.841 266.827 172.263 254.838 L 164.508 257.921 C 169.522 270.762 176.936 282.051 186.205 290.973 C 196.514 300.242 211.979 302.301 219.554 308.499 C 226.105 312.684 226.589 322.152 228.844 328.773 C 231.66 335.166 229.174 339.903 224.368 347.904 C 218.361 358.078 208.793 368.189 205.717 377.441 C 204.775 380.658 204.242 385.379 204.252 390.947 C 204.258 393.694 204.378 396.823 204.604 400.187 C 204.829 403.54 205.596 411.033 205.596 411.033 C 205.601 411.087 213.938 410.562 213.943 410.616 Z " fill="rgb(51,51,55)"/></g></g></g></g></g></g></svg>