<?xml version="1.0" encoding="UTF-8" standalone="no"?><!-- Generator: Gravit.io --><svg xmlns="http://www.w3.org/2000/svg" xmlns:xlink="http://www.w3.org/1999/xlink" style="isolation:isolate" viewBox="0 0 500.1 623.4" width="500.1pt" height="623.4pt"><defs><clipPath id="_clipPath_H9iY3HtX4n7DCIq64SoyQy4U1kx5H8Zf"><rect width="500.1" height="623.4"/></clipPath></defs><g clip-path="url(#_clipPath_H9iY3HtX4n7DCIq64SoyQy4U1kx5H8Zf)"><clipPath id="_clipPath_gErGeNStVzW5X3AhcVCreZRRXRXjRcfN"><rect x="89.279" y="111.7" width="321.541" height="400" transform="matrix(1,0,0,1,0,0)" fill="rgb(255,255,255)"/></clipPath><g clip-path="url(#_clipPath_gErGeNStVzW5X3AhcVCreZRRXRXjRcfN)"><g><rect x="89.279" y="111.7" width="321.541" height="400" transform="matrix(1,0,0,1,0,0)" fill="none"/><path d=" M 123.041 111.7 L 377.059 111.7 C 395.693 111.7 410.821 126.828 410.821 145.462 L 410.821 465.576 L 362.832 511.7 L 123.041 511.7 C 104.407 511.7 89.279 496.572 89.279 477.938 L 89.279 145.462 C 89.279 126.828 104.407 111.7 123.041 111.7 Z " fill="rgb(0,0,0)" fill-opacity="0.04"/><path d=" M 126.083 116.489 L 374.017 116.489 C 392.205 116.489 406.971 131.255 406.971 149.442 L 406.971 461.892 L 360.131 506.911 L 126.083 506.911 C 107.895 506.911 93.129 492.145 93.129 473.958 L 93.129 149.442 C 93.129 131.255 107.895 116.489 126.083 116.489 Z " fill="rgb(255,255,255)"/><path d=" M 406.971 461.892 L 360.131 506.911 Q 351.83 466.103 360.131 461.892 Q 368.432 457.681 406.971 461.892 Z " fill="rgb(238,238,238)"/><rect x="120.8" y="159.038" width="211.141" height="27.59" transform="matrix(1,0,0,1,0,0)" fill="rgb(238,238,238)"/><rect x="120.8" y="213.369" width="153.605" height="27.59" transform="matrix(1,0,0,1,0,0)" fill="rgb(238,238,238)"/><rect x="120.8" y="267.7" width="228.293" height="27.59" transform="matrix(1,0,0,1,0,0)" fill="rgb(238,238,238)"/><rect x="120.8" y="320.312" width="171.541" height="27.59" transform="matrix(1,0,0,1,0,0)" fill="rgb(238,238,238)"/><path d=" M 151.037 233.555 L 294.567 195.1 C 298.176 194.132 301.893 196.278 302.86 199.887 L 306.585 213.788 C 307.553 217.398 305.407 221.114 301.797 222.082 L 158.267 260.538 C 154.657 261.505 150.94 259.36 149.973 255.75 L 146.249 241.849 C 145.281 238.239 147.427 234.523 151.037 233.555 Z " fill="rgb(40,40,45)"/><path d=" M 199.025 412.643 L 342.555 374.187 C 346.165 373.22 349.882 375.365 350.849 378.975 L 354.573 392.876 C 355.541 396.485 353.395 400.202 349.785 401.169 L 206.255 439.625 C 202.645 440.593 198.928 438.447 197.961 434.837 L 194.237 420.937 C 193.269 417.327 195.415 413.611 199.025 412.643 Z " fill="rgb(40,40,45)"/><path d=" M 208.06 282.353 Q 201.097 279.821 191.402 272.923 Q 221.692 268.868 235.354 265.4 Q 249.015 261.931 277.641 249.816 Q 272.977 260.847 268.398 266.185 C 258.505 281.053 252.988 284.39 252.628 291.909 C 252.268 299.427 261.591 330.343 264.155 334.929 C 266.72 339.516 270.723 351.898 276.422 353.065 C 282.121 354.23 295.306 352.116 301.195 356.633 Q 311.752 362.169 320.49 380.1 L 220.495 406.893 Q 219.664 385.143 225.537 376.906 C 231.411 368.669 243.835 364.773 246.794 361.003 C 249.495 355.743 247.788 344.049 247.754 339.324 C 247.721 334.599 240.605 303.102 236.227 296.303 C 231.848 289.505 223.271 287.884 208.06 282.353 Z " fill="rgb(108,160,242)"/><path d=" M 169 260.213 Q 178.251 280.983 184.591 286.657 C 190.931 292.33 203.775 295.709 214.419 301.347 C 222.783 305.776 228.335 309.933 229.816 317.876 C 230.955 323.991 235.026 333.264 231.383 341.599 C 227.157 351.27 214.804 360.327 211.136 371.97 Q 205.739 389.103 208.599 408.002" fill="none"/><path d=" M 172.81 258.516 C 179.72 265.257 180.191 277.096 187.372 283.549 C 207.927 302.02 222.407 289.241 233.916 317.112 C 245.491 345.143 226.716 349.976 215.114 373.223 C 212.408 378.646 211.534 391.371 211.852 398.483 C 211.991 401.608 214.725 405.384 212.766 407.822 C 211.027 409.986 205.663 410.2 204.439 407.708 C 201.723 402.181 203.191 395.393 203.643 389.252 C 204.104 382.98 204.414 376.375 207.158 370.717 C 217.817 348.736 236.539 343.665 225.716 318.641 C 218.013 300.831 193.775 300.678 181.81 289.765 C 173.822 282.478 168.182 272.3 165.19 261.91 C 164.42 259.238 170.82 256.574 172.81 258.516 Z " fill="rgb(51,51,55)"/><path d=" M 173.034 258.286 C 179.992 265.136 180.459 276.971 187.586 283.31 C 197.782 292.507 206.486 293.895 214.139 296.502 C 221.797 299.11 228.39 302.976 234.212 316.99 C 240.008 331.101 238.204 339.467 233.479 347.13 C 228.76 354.784 221.168 361.789 215.401 373.366 C 212.711 378.729 211.854 391.375 212.172 398.469 C 212.23 399.977 212.943 401.665 213.404 403.324 C 213.867 404.986 214.029 406.684 213.016 408.023 C 212.072 409.157 210.173 409.819 208.412 409.832 C 207.529 409.839 206.624 409.688 205.887 409.377 C 205.145 409.064 204.5 408.527 204.151 407.85 C 201.422 402.218 202.874 395.347 203.323 389.228 C 203.784 382.961 204.11 376.297 206.869 370.577 C 212.235 359.539 219.585 352.755 224.224 345.645 C 228.856 338.544 230.825 331.176 225.421 318.768 C 221.638 309.939 213.737 305.534 205.235 301.912 C 196.733 298.29 187.638 295.493 181.594 290.002 C 173.573 282.675 167.888 272.422 164.882 261.999 C 164.694 261.229 164.975 260.405 165.535 259.768 C 166.086 259.141 166.936 258.578 167.838 258.189 C 168.739 257.799 169.762 257.55 170.664 257.531 C 171.575 257.511 172.464 257.76 173.034 258.286 Z  M 170.678 258.172 C 169.845 258.19 168.943 258.409 168.092 258.778 C 167.242 259.145 166.512 259.628 166.017 260.191 C 165.531 260.744 165.301 261.255 165.498 261.822 C 168.477 272.178 174.07 282.282 182.026 289.528 C 187.947 294.949 196.953 297.686 205.487 301.321 C 214.021 304.957 222.09 309.533 226.01 318.514 C 231.429 331.129 229.449 338.809 224.761 345.995 C 220.08 353.172 212.74 359.914 207.447 370.857 C 204.719 376.452 204.424 383 203.963 389.275 C 203.508 395.438 202.024 402.145 204.727 407.567 C 204.989 408.136 205.475 408.507 206.137 408.786 C 206.805 409.068 207.579 409.196 208.407 409.191 C 210.069 409.178 211.721 408.652 212.516 407.621 C 213.462 406.522 213.236 405.112 212.787 403.496 C 212.336 401.875 211.613 400.114 211.531 398.497 C 211.214 391.367 212.104 378.563 214.828 373.08 C 220.663 361.41 228.259 354.374 232.933 346.793 C 237.603 339.22 239.398 331.154 233.619 317.235 C 227.932 303.377 221.531 299.697 213.932 297.109 C 206.33 294.519 197.516 293.062 187.158 283.787 C 179.924 277.222 179.448 265.378 172.586 258.746 C 172.161 258.301 171.503 258.155 170.678 258.172 Z " fill="none"/><path d=" M 292.341 227.164 Q 294.714 249.777 292.06 257.861 C 289.406 265.943 279.972 275.293 273.573 285.497 C 268.544 293.515 265.815 299.89 268.504 307.51 C 270.574 313.375 271.685 323.441 279.008 328.838 C 287.503 335.1 302.729 336.767 311.727 345.016 Q 324.969 357.156 331.941 374.953" fill="none"/><path d=" M 288.177 227.409 C 288.177 227.409 288.867 234.696 289.05 237.808 C 289.232 240.908 289.31 243.627 289.287 246.107 C 289.242 250.995 288.893 254.269 288.097 256.56 C 285.957 263.811 276.737 272.704 270.039 283.281 C 264.861 291.586 261.932 299.764 264.572 308.899 C 266.535 314.297 268.375 325.349 276.534 332.195 C 286.039 338.852 301.093 340.377 308.908 348.091 C 317.417 355.814 323.623 365.016 328.058 376.474 L 335.824 373.431 C 330.963 361.161 323.692 350.406 314.546 341.942 C 304.366 333.157 288.968 331.348 281.482 325.48 C 274.995 321.534 274.614 312.452 272.437 306.122 C 269.698 300.016 272.228 295.443 277.106 287.712 C 283.206 277.882 292.855 268.075 296.022 259.162 C 296.996 256.064 297.578 251.527 297.628 246.183 C 297.652 243.546 297.566 240.544 297.377 237.318 C 297.188 234.102 296.504 226.919 296.504 226.919 C 296.5 226.867 288.181 227.461 288.177 227.409 Z " fill="rgb(51,51,55)"/><path d=" M 288.521 227.081 C 288.748 227.069 289.071 227.051 289.46 227.027 C 290.241 226.979 291.28 226.912 292.321 226.844 C 293.361 226.776 294.402 226.709 295.183 226.661 C 295.573 226.637 295.901 226.618 296.13 226.607 C 296.245 226.601 296.339 226.598 296.402 226.596 C 296.436 226.595 296.467 226.595 296.488 226.595 C 296.501 226.596 296.523 226.597 296.538 226.599 C 296.549 226.6 296.58 226.606 296.599 226.612 C 296.617 226.617 296.66 226.637 296.685 226.654 C 296.729 226.684 296.793 226.805 296.824 226.889 C 296.824 226.889 297.507 234.078 297.697 237.299 C 297.886 240.53 297.972 243.543 297.949 246.186 C 297.898 251.549 297.305 256.143 296.325 259.269 C 293.12 268.241 283.456 278.081 277.378 287.884 C 272.504 295.606 269.995 300.056 272.741 306.017 C 274.925 312.393 275.239 321.39 281.649 325.206 L 281.664 325.215 L 281.68 325.228 C 289.085 331.063 304.497 332.884 314.764 341.707 C 323.934 350.198 331.245 361.012 336.122 373.313 L 336.241 373.612 L 327.875 376.89 L 327.759 376.59 C 323.34 365.164 317.167 356.013 308.683 348.319 C 300.964 340.651 285.909 339.126 276.328 332.441 C 268.114 325.498 266.22 314.358 264.264 308.988 C 261.626 299.754 264.574 291.445 269.769 283.11 C 276.49 272.502 285.697 263.636 287.794 256.454 C 288.581 254.199 288.922 250.976 288.966 246.103 C 288.989 243.63 288.912 240.922 288.73 237.826 C 288.547 234.724 287.859 227.454 287.858 227.439 L 287.658 225.33 L 288.379 227.087 C 288.42 227.085 288.467 227.083 288.521 227.081 Z  M 288.691 229.484 C 288.91 231.883 289.249 235.739 289.37 237.789 C 289.552 240.894 289.63 243.624 289.607 246.11 C 289.562 251.013 289.204 254.332 288.402 256.658 C 286.216 263.978 276.985 272.905 270.311 283.452 C 265.147 291.726 262.234 299.762 264.877 308.799 C 266.846 314.229 268.635 325.19 276.729 331.94 C 286.159 338.562 301.217 340.098 309.129 347.857 C 317.66 355.609 323.796 364.707 328.24 376.058 L 335.407 373.25 C 330.562 361.135 323.452 350.616 314.332 342.182 C 304.238 333.437 288.864 331.645 281.298 325.744 C 274.751 321.661 274.306 312.523 272.138 306.238 C 269.415 299.997 271.951 295.281 276.834 287.542 C 282.956 277.684 292.587 267.915 295.718 259.06 C 296.685 255.99 297.259 251.505 297.307 246.18 C 297.331 243.55 297.246 240.558 297.057 237.337 C 296.891 234.515 296.343 228.629 296.213 227.245 C 296.196 227.246 296.179 227.247 296.161 227.248 C 295.935 227.259 295.612 227.278 295.222 227.301 C 294.442 227.349 293.403 227.416 292.363 227.484 C 291.322 227.552 290.281 227.62 289.5 227.667 C 289.109 227.692 288.782 227.71 288.552 227.721 C 288.544 227.722 288.536 227.722 288.529 227.722 C 288.529 227.722 288.508 227.504 288.529 227.722 C 288.424 227.727 288.339 227.731 288.279 227.733 C 288.246 227.733 288.691 229.484 288.691 229.484 Z " fill="none"/></g></g></g></svg>