<?xml version="1.0" encoding="UTF-8" standalone="no"?><!-- Generator: Gravit.io --><svg xmlns="http://www.w3.org/2000/svg" xmlns:xlink="http://www.w3.org/1999/xlink" style="isolation:isolate" viewBox="519.875 306.223 501.125 623.404" width="501.125pt" height="623.404pt"><defs><clipPath id="_clipPath_NpufdTxfIS5fLTpkj8nLnZLFCeDgXgL9"><rect x="519.875" y="306.223" width="501.125" height="623.404"/></clipPath></defs><g clip-path="url(#_clipPath_NpufdTxfIS5fLTpkj8nLnZLFCeDgXgL9)"><rect x="519.875" y="306.223" width="501.125" height="623.404" style="fill:rgb(204,204,204)" fill-opacity="0"/><path d=" M 572.493 306.223 L 968.382 306.223 C 997.423 306.223 1021 329.8 1021 358.841 L 1021 857.743 L 946.209 929.627 L 572.493 929.627 C 543.452 929.627 519.875 906.05 519.875 877.009 L 519.875 358.841 C 519.875 329.8 543.452 306.223 572.493 306.223 Z " fill="rgb(0,0,0)" fill-opacity="0.02"/><path d=" M 577.233 313.687 L 963.642 313.687 C 991.987 313.687 1015 336.7 1015 365.045 L 1015 852 L 942 922.163 L 577.233 922.163 C 548.888 922.163 525.875 899.15 525.875 870.805 L 525.875 365.045 C 525.875 336.7 548.888 313.687 577.233 313.687 Z " fill="rgb(255,255,255)"/><path d=" M 1015 852 L 942 922.163 Q 929.063 858.563 942 852 Q 954.937 845.438 1015 852 Z " fill="rgb(238,238,238)"/><rect x="569" y="380" width="329.065" height="43" transform="matrix(1,0,0,1,0,0)" fill="rgb(238,238,238)"/><rect x="569" y="464.675" width="239.395" height="43" transform="matrix(1,0,0,1,0,0)" fill="rgb(238,238,238)"/><rect x="569" y="549.35" width="355.797" height="43" transform="matrix(1,0,0,1,0,0)" fill="rgb(238,238,238)"/><rect x="569" y="631.347" width="267.348" height="43" transform="matrix(1,0,0,1,0,0)" fill="rgb(238,238,238)"/><path d="M 616.125 496.136 L 839.817 436.202 C 845.443 434.694 851.236 438.038 852.743 443.664 L 858.548 465.328 C 860.056 470.954 856.712 476.746 851.085 478.254 L 627.393 538.188 C 621.767 539.696 615.974 536.352 614.467 530.726 L 608.662 509.062 C 607.154 503.436 610.498 497.644 616.125 496.136 Z" style="stroke:none;fill:#28282D;stroke-miterlimit:10;"/><path d="M 690.915 775.246 L 914.607 715.312 C 920.233 713.804 926.026 717.148 927.533 722.774 L 933.338 744.438 C 934.846 750.064 931.502 755.856 925.875 757.364 L 702.183 817.298 C 696.557 818.806 690.764 815.462 689.257 809.836 L 683.452 788.172 C 681.944 782.546 685.288 776.754 690.915 775.246 Z" style="stroke:none;fill:#28282D;stroke-miterlimit:10;"/><path d=" M 704.996 572.187 Q 694.143 568.241 679.034 557.491 Q 726.242 551.171 747.533 545.766 Q 768.824 540.36 813.439 521.478 Q 806.17 538.67 799.033 546.99 C 783.614 570.161 775.016 575.362 774.456 587.08 C 773.895 598.798 788.424 646.98 792.421 654.128 C 796.418 661.276 802.656 680.574 811.539 682.392 C 820.421 684.209 840.97 680.913 850.147 687.954 Q 866.6 696.582 880.219 724.527 L 724.375 766.285 Q 723.08 732.386 732.234 719.549 C 741.388 706.712 760.751 700.64 765.363 694.764 C 769.573 686.566 766.912 668.341 766.859 660.977 C 766.807 653.614 755.717 604.525 748.894 593.929 C 742.07 583.334 728.702 580.807 704.996 572.187 Z " fill="rgb(108,160,242)"/><path d=" M 644.12 537.682 Q 658.538 570.053 668.419 578.895 C 678.3 587.736 698.318 593.003 714.907 601.789 C 727.942 608.693 736.594 615.171 738.902 627.551 C 740.678 637.08 747.023 651.533 741.345 664.523 C 734.758 679.595 715.507 693.71 709.79 711.856 Q 701.378 738.559 705.836 768.012" fill="none" vector-effect="non-scaling-stroke" stroke-width="13" stroke="rgb(51,51,55)" stroke-linejoin="miter" stroke-linecap="square" stroke-miterlimit="3"/><path d=" M 836.348 486.175 Q 840.047 521.418 835.91 534.016 C 831.774 546.613 817.071 561.184 807.098 577.087 C 799.261 589.583 795.007 599.519 799.199 611.395 C 802.425 620.535 804.156 636.224 815.569 644.635 C 828.809 654.394 852.539 656.992 866.562 669.849 Q 887.199 688.769 898.065 716.505" fill="none" vector-effect="non-scaling-stroke" stroke-width="13" stroke="rgb(51,51,55)" stroke-linejoin="miter" stroke-linecap="square" stroke-miterlimit="3"/></g></svg>